# AST/ASF file generated using VICON BodyLanguage
# -----------------------------------------------
:version 1.10
:name VICON
:units
  mass 1.0
  length 0.45
  angle deg
:documentation
   .ast/.asf automatically generated from VICON data using
   VICON BodyBuilder and BodyLanguage model FoxedUp or BRILLIANT.MOD
:root
   order TX TY TZ RX RY RZ
   axis XYZ
   position 0 0 0  
   orientation 0 0 0 
:bonedata
  begin
     id 1 
     name lhipjoint
     direction 0.693937 -0.600361 0.397515 
     length 2.37164 
     axis 0 0 0  XYZ
  end
  begin
     id 2 
     name lfemur
     direction 0.34202 -0.939693 0  
     length 6.18497  
     axis 0 0 20  XYZ
    dof rx ry rz
    limits (-160.0 20.0)
           (-70.0 70.0)
           (-60.0 70.0)
  end
  begin
     id 3 
     name ltibia
     direction 0.34202 -0.939693 0   
     length 6.91601   
     axis 0 0 20   XYZ
    dof rx
    limits (-10.0 170.0)
  end
  begin
     id 4 
     name lfoot
     direction 0.0978718 -0.2689 0.958182   
     length 1.81453   
     axis -90 7.62852e-016 20   XYZ
    dof rx rz
    limits (-45.0 90.0)
           (-70.0 20.0)
  end
  begin
     id 5 
     name ltoes
     direction 1.53569e-011 -4.21951e-011 1   
     length 0.912052   
     axis -90 7.62852e-016 20   XYZ
    dof rx
    limits (-90.0 20.0)
  end
  begin
     id 6 
     name rhipjoint
     direction -0.643996 -0.637876 0.422354   
     length 2.23216  
     axis 0 0 0  XYZ 
  end
  begin
     id 7 
     name rfemur
     direction -0.34202 -0.939693 0   
     length 6.15404   
     axis 0 0 -20   XYZ
    dof rx ry rz
    limits (-160.0 20.0)
           (-70.0 70.0)
           (-70.0 60.0)
  end
  begin
     id 8 
     name rtibia
     direction -0.34202 -0.939693 0   
     length 6.86744   
     axis 0 0 -20   XYZ
    dof rx
    limits (-10.0 170.0)
 end
 begin
     id 9 
     name rfoot
     direction -0.118701 -0.326127 0.937844   
     length 1.9243  
     axis -90 -7.62852e-016 -20   XYZ
    dof rx rz
    limits (-45.0 90.0)
           (-20.0 70.0)
  end
  begin
     id 10 
     name rtoes
     direction -1.5356e-011 -4.2181e-011 1   
     length 0.958865   
     axis -90 -7.62852e-016 -20   XYZ
    dof rx
    limits (-90.0 20.0)
  end
  begin
     id 11 
     name lowerback
     direction 0.0310826 0.968686 -0.246334   
     length 2.00021   
     axis 0 0 0   XYZ
    dof rx ry rz
    limits (-20.0 45.0)
           (-30.0 30.0)
           (-30.0 30.0)
  end
  begin
     id 12 
     name upperback
     direction -0.0152834 0.999474 -0.0286152   
     length 2.03728   
     axis 0 0 0   XYZ
    dof rx ry rz
    limits (-20.0 45.0)
           (-30.0 30.0)
           (-30.0 30.0)
  end
  begin
     id 13 
     name thorax
     direction -0.0323701 0.996236 0.0804149   
     length 2.16   
     axis 0 0 0   XYZ
    dof rx ry rz
    limits (-20.0 45.0)
           (-30.0 30.0)
           (-30.0 30.0)
  end
  begin
     id 14 
     name lowerneck
     direction 0.0307935 0.982251 0.185027   
     length 1.43558   
     axis 0 0 0   XYZ
    dof rx ry rz
    limits (-20.0 45.0)
           (-30.0 30.0)
           (-30.0 30.0)
  end
  begin
     id 15 
     name upperneck
     direction -0.0927153 0.994775 0.0427454   
     length 1.44603   
     axis 0 0 0   XYZ
    dof rx ry rz
    limits (-20.0 45.0)
           (-30.0 30.0)
           (-30.0 30.0)
  end
  begin
     id 16
     name head
     direction -0.0341265 0.999406 -0.00472033  
     length 1.45931  
     axis 0 0 0   XYZ
    dof rx ry rz
    limits (-20.0 45.0)
           (-30.0 30.0)
           (-30.0 30.0)
  end
  begin
     id 17 
     name lclavicle
     direction 0.820755 0.555306 -0.134151  
     length 2.66075  
     axis 0 0 0   XYZ
    dof ry rz
    limits (-20.0 10.0)
           (0.0 20.0)
  end
  begin
     id 18 
     name lhumerus
     direction 1 -4.48971e-011 5.24853e-027   
     length 5.0546   
     axis -180 -30 -90   XYZ
    dof rx ry rz
    limits (-60.0 90.0)
           (-90.0 90.0)
           (-90.0 90.0)
  end
  begin
     id 19
     name lradius
     direction 1 -4.48971e-011 2.76575e-028   
     length 3.39013   
     axis -180 -30 -90   XYZ
    dof rx
    limits (-10.0 170.0)
  end
  begin
     id 20
     name lwrist
     direction 1 -4.48939e-011 -2.27826e-027   
     length 1.69507   
     axis 2.17013e-015 90 90   XYZ
    dof ry
    limits (-180.0 0.0)
 end
  begin
     id 21 
     name lhand
     direction 1 -4.49009e-011 -4.55652e-027   
     length 0.572425   
     axis 2.90745e-015 90 90   XYZ
    dof rx rz
    limits (-90.0 90.0)
           (-45.0 45.0)
  end
  begin
     id 22 
     name lfingers
     direction 1 -4.48955e-011 -9.11303e-027   
     length 0.461504   
     axis 5.81489e-015 90 90   XYZ
    dof rx
    limits (0.0 90.0)
  end
  begin
     id 23
     name lthumb
     direction 0.707107 -6.34929e-011 0.707107   
     length 0.66263   
     axis -90 45 2.85299e-015   XYZ
    dof rx rz
    limits (-45.0 45.0)
           (-45.0 45.0)
  end
  begin
     id 24 
     name rclavicle
     direction -0.754477 0.632921 -0.173712   
     length 2.73081  
     axis 0 0 0   XYZ 
    dof ry rz
    limits (-10.0 20.0)
           (-20.0 0.0)
  end
  begin
     id 25 
     name rhumerus
     direction -1 -4.48969e-011 5.1496e-027  
     length 5.0701   
     axis -180 30 90   XYZ
    dof rx ry rz
    limits (-90.0 60.0)
           (-90.0 90.0)
           (-90.0 90.0)
  end
  begin
     id 26 
     name rradius
     direction -1 -4.48967e-011 -7.15624e-028   
     length 3.14957   
     axis -180 30 90   XYZ
    dof rx
    limits (-10.0 170.0)
  end
  begin
     id 27 
     name rwrist
     direction -1 -4.48938e-011 -2.27826e-027   
     length 1.57479   
     axis 2.17013e-015 -90 -90   XYZ
    dof ry
    limits (-180.0 0.0)
  end
  begin
     id 28
     name rhand
     direction -1 -4.49008e-011 -4.55652e-027   
     length 0.718191   
     axis 2.90745e-015 -90 -90   XYZ
    dof rx rz
    limits (-90.0 90.0)
           (-45.0 45.0)
  end
  begin
     id 29
     name rfingers
     direction -1 -4.48953e-011 -9.11303e-027   
     length 0.579024   
     axis 5.81489e-015 -90 -90   XYZ
    dof rx
    limits (0.0 90.0)
  end
  begin
     id 30
     name rthumb
     direction -0.707107 -6.34937e-011 0.707107   
     length 0.831366   
     axis -90 -45 -2.85299e-015   XYZ
    dof rx rz
    limits (-45.0 45.0)
           (-45.0 45.0)
  end
:hierarchy
  begin
    root lhipjoint rhipjoint lowerback
    lhipjoint lfemur
    lfemur ltibia
    ltibia lfoot
    lfoot ltoes
    rhipjoint rfemur
    rfemur rtibia
    rtibia rfoot
    rfoot rtoes
    lowerback upperback
    upperback thorax
    thorax lowerneck lclavicle rclavicle
    lowerneck upperneck
    upperneck head
    lclavicle lhumerus
    lhumerus lradius
    lradius lwrist
    lwrist lhand lthumb
    lhand lfingers
    rclavicle rhumerus
    rhumerus rradius
    rradius rwrist
    rwrist rhand rthumb
    rhand rfingers
  end

#!OML:ASF H:\Male1\Project 1\Capture day 1\Session 1\Male1.ASF
:FULLY-SPECIFIED
:DEGREES
280
root 15.1774 15.4015 3.72699 175.751 -35.1193 179.911
lowerback 4.60298 0.681915 -0.898501
upperback 2.77368 0.773945 -0.632016
thorax 0.263249 0.338736 -0.177387
lowerneck -6.55689 3.09587 7.50204
upperneck 6.13511 3.77559 -4.82634
head 3.47003 1.86885 -2.77106
rclavicle -1.07219e-014 1.0138e-014
rhumerus 20.7596 -8.11966 -95.5469
rradius 45.0574
rwrist -67.9568
rhand -25.5511 -10.8336
rfingers 7.12502
rthumb 0.97931 -40.8111
lclavicle -1.07219e-014 1.0138e-014
lhumerus 89.6655 -56.2825 6.99794
lradius 98.6506
lwrist 37.8555
lhand 16.4986 4.86139
lfingers 7.12502
lthumb 41.2603 29.6945
rfemur -1.58489 12.8617 22.4146
rtibia 23.4969
rfoot -30.3266 -31.6163
rtoes -15.1448
lfemur -2.73241 -19.1423 -22.0999
ltibia 24.7913
lfoot -22.3783 25.9701
ltoes -3.42656
281
root 15.1747 15.3998 3.72563 175.783 -34.9175 179.76
lowerback 4.46181 0.718734 -0.901231
upperback 2.90415 0.820803 -0.658818
thorax 0.476053 0.359153 -0.202886
lowerneck -6.74897 3.14766 7.66275
upperneck 6.25271 3.82874 -4.96533
head 3.56286 1.89289 -2.84711
rclavicle 6.24432e-014 -2.38542e-015
rhumerus 20.824 -8.2018 -95.5746
rradius 45.3627
rwrist -67.8816
rhand -25.615 -9.97751
rfingers 7.12502
rthumb 0.917571 -39.9553
lclavicle 6.24432e-014 -2.38542e-015
lhumerus 88.802 -56.5854 7.85543
lradius 98.3736
lwrist 37.6348
lhand 19.4886 6.10181
lfingers 7.12502
lthumb 44.0584 29.9629
rfemur -1.62566 12.8925 22.2826
rtibia 23.6587
rfoot -30.2661 -31.4912
rtoes -15.345
lfemur -2.56389 -19.0486 -22.2656
ltibia 24.6762
lfoot -22.3549 26.0686
ltoes -3.56444
282
root 15.1721 15.4005 3.72478 175.756 -34.7372 179.781
lowerback 4.50356 0.736712 -0.822726
upperback 2.86296 0.84867 -0.618064
thorax 0.410935 0.374924 -0.206968
lowerneck -6.76642 3.17541 7.63939
upperneck 6.66587 3.89242 -5.17043
head 3.33844 1.90013 -2.61315
rclavicle -1.32316e-014 8.34896e-015
rhumerus 20.762 -8.28296 -95.513
rradius 45.5484
rwrist -67.6169
rhand -25.512 -9.85677
rfingers 7.12502
rthumb 1.01704 -39.8341
lclavicle -1.32316e-014 8.34896e-015
lhumerus 88.195 -56.8446 8.32732
lradius 97.9707
lwrist 37.1672
lhand 21.3702 6.56371
lfingers 7.12502
lthumb 45.8093 29.7372
rfemur -1.65242 12.941 22.2848
rtibia 23.7473
rfoot -30.5123 -31.151
rtoes -14.4844
lfemur -2.48705 -18.9154 -22.2525
ltibia 24.6288
lfoot -22.3927 26.0899
ltoes -3.40057
283
root 15.1685 15.4008 3.72413 175.707 -34.5824 179.857
lowerback 4.5044 0.746139 -0.674565
upperback 2.84656 0.867902 -0.576988
thorax 0.395164 0.386774 -0.24877
lowerneck -6.78987 3.21372 7.59505
upperneck 6.74271 3.94313 -5.11263
head 3.36678 1.92647 -2.58489
rclavicle 1.78782e-014 -5.56597e-015
rhumerus 20.7154 -8.11439 -95.2062
rradius 45.7705
rwrist -67.5135
rhand -25.5127 -10.2167
rfingers 7.12502
rthumb 1.01643 -40.1941
lclavicle 1.78782e-014 -5.56597e-015
lhumerus 87.8529 -56.9192 8.41022
lradius 97.6809
lwrist 37.594
lhand 22.8344 6.82772
lfingers 7.12502
lthumb 47.1658 29.4205
rfemur -1.66326 12.9716 22.3313
rtibia 23.7774
rfoot -30.6662 -30.9406
rtoes -14.035
lfemur -2.44609 -18.8739 -22.2078
ltibia 24.6373
lfoot -22.1102 26.3648
ltoes -4.73494
284
root 15.166 15.3997 3.72391 175.724 -34.4694 179.842
lowerback 4.4949 0.7197 -0.59712
upperback 2.85044 0.835605 -0.574703
thorax 0.405554 0.371557 -0.288361
lowerneck -6.97105 3.26062 7.83288
upperneck 6.90644 3.991 -5.33824
head 3.45844 1.9448 -2.68671
rclavicle -4.67392e-014 6.16232e-015
rhumerus 20.6881 -7.6893 -94.8236
rradius 46.1406
rwrist -67.549
rhand -25.8277 -10.6522
rfingers 7.12502
rthumb 0.71212 -40.6308
lclavicle -4.67392e-014 6.16232e-015
lhumerus 87.4864 -56.9686 8.38033
lradius 97.5155
lwrist 38.7296
lhand 23.5363 7.31231
lfingers 7.12502
lthumb 47.814 29.6115
rfemur -1.68321 12.9439 22.2998
rtibia 23.769
rfoot -30.5543 -30.9176
rtoes -14.347
lfemur -2.45486 -18.8122 -22.2271
ltibia 24.6847
lfoot -22.1967 26.3713
ltoes -4.6901
285
root 15.1661 15.3979 3.7239 175.794 -34.3576 179.774
lowerback 4.4752 0.742461 -0.608106
upperback 2.85945 0.865422 -0.577937
thorax 0.425683 0.386147 -0.286425
lowerneck -7.06439 3.23386 7.98874
upperneck 6.87992 3.94345 -5.47272
head 3.46836 1.91836 -2.75473
rclavicle 1.19768e-014 4.57205e-015
rhumerus 20.6052 -7.26966 -94.4067
rradius 46.8474
rwrist -67.5592
rhand -26.7579 -10.493
rfingers 7.12502
rthumb -0.186261 -40.4727
lclavicle 1.19768e-014 4.57205e-015
lhumerus 87.3197 -57.0202 8.23984
lradius 97.5054
lwrist 40.0148
lhand 23.2455 7.57237
lfingers 7.12502
lthumb 47.5456 29.9944
rfemur -1.72554 12.9303 22.2226
rtibia 23.74
rfoot -30.4056 -30.8471
rtoes -14.5438
lfemur -2.51632 -18.6986 -22.2645
ltibia 24.7578
lfoot -22.7669 26.0602
ltoes -2.74879
286
root 15.1689 15.3956 3.72319 175.85 -34.2686 179.74
lowerback 4.52109 0.780561 -0.650418
upperback 2.82973 0.91494 -0.556921
thorax 0.368613 0.410775 -0.243988
lowerneck -6.94201 3.18389 7.864
upperneck 6.63046 3.88239 -5.33701
head 3.36359 1.8918 -2.69874
rclavicle 1.38652e-014 -3.97569e-016
rhumerus 20.3939 -6.87091 -94.0294
rradius 47.7721
rwrist -67.2956
rhand -27.71 -9.55013
rfingers 7.12502
rthumb -1.1058 -39.527
lclavicle 1.38652e-014 -3.97569e-016
lhumerus 87.1204 -57.1014 8.25751
lradius 97.6808
lwrist 40.8359
lhand 22.3862 7.47287
lfingers 7.12502
lthumb 46.7511 30.248
rfemur -1.75577 12.9521 22.1912
rtibia 23.7021
rfoot -30.5162 -30.69
rtoes -14.1975
lfemur -2.59803 -18.5469 -22.2497
ltibia 24.8328
lfoot -22.838 25.9486
ltoes -2.57058
287
root 15.171 15.395 3.72211 175.827 -34.2477 179.812
lowerback 4.70693 0.783268 -0.536933
upperback 2.72771 0.923393 -0.549343
thorax 0.162069 0.418096 -0.303361
lowerneck -6.81351 3.16191 7.73918
upperneck 6.49354 3.86098 -5.19916
head 3.29462 1.88509 -2.63967
rclavicle 1.16239e-013 -8.74653e-015
rhumerus 20.1368 -6.35867 -93.7054
rradius 48.7125
rwrist -66.573
rhand -28.1885 -8.90196
rfingers 7.12502
rthumb -1.56798 -38.8759
lclavicle 1.16239e-013 -8.74653e-015
lhumerus 86.8856 -57.3025 8.34367
lradius 97.9891
lwrist 40.8594
lhand 21.6103 7.42706
lfingers 7.12502
lthumb 46.0321 30.5082
rfemur -1.75398 12.9658 22.2694
rtibia 23.668
rfoot -30.5883 -30.6698
rtoes -14.0627
lfemur -2.65251 -18.4549 -22.1498
ltibia 24.8822
lfoot -22.4544 26.0727
ltoes -3.95159
288
root 15.1712 15.3956 3.72105 175.802 -34.2833 179.908
lowerback 4.60178 0.783554 -0.386254
upperback 2.8306 0.927763 -0.533115
thorax 0.328455 0.420234 -0.369186
lowerneck -6.85073 3.15712 7.70094
upperneck 5.98333 3.82827 -4.97706
head 3.49013 1.89078 -2.85592
rclavicle 2.37051e-014 -6.55989e-015
rhumerus 20.2603 -5.38349 -93.124
rradius 49.8187
rwrist -65.8505
rhand -28.9809 -8.37879
rfingers 7.12502
rthumb -2.3333 -38.3458
lclavicle 2.37051e-014 -6.55989e-015
lhumerus 86.8202 -57.2839 8.40813
lradius 98.3813
lwrist 40.167
lhand 21.2876 7.75381
lfingers 7.12502
lthumb 45.7326 30.9589
rfemur -1.76007 12.9286 22.3535
rtibia 23.6304
rfoot -30.3886 -30.7993
rtoes -14.7328
lfemur -2.69176 -18.5774 -22.0655
ltibia 24.9062
lfoot -22.2308 26.2709
ltoes -5.00068
289
root 15.1722 15.3961 3.71934 175.886 -34.3384 179.844
lowerback 4.50829 0.786184 -0.38605
upperback 2.90697 0.929378 -0.573083
thorax 0.459638 0.419947 -0.408527
lowerneck -6.79936 3.15687 7.66469
upperneck 5.71473 3.83046 -4.96752
head 3.38504 1.89016 -2.84377
rclavicle -4.09993e-015 -7.7526e-015
rhumerus 20.2918 -3.96767 -92.3164
rradius 51.4127
rwrist -65.2725
rhand -30.3216 -7.66183
rfingers 7.12502
rthumb -3.628 -37.6107
lclavicle -4.09993e-015 -7.7526e-015
lhumerus 86.8022 -57.3318 8.47272
lradius 98.7719
lwrist 39.1153
lhand 20.9311 8.27563
lfingers 7.12502
lthumb 45.4015 31.6153
rfemur -1.77509 12.8889 22.2888
rtibia 23.5885
rfoot -30.2559 -30.8957
rtoes -15.2781
lfemur -2.73453 -18.7457 -22.1256
ltibia 24.9092
lfoot -22.2307 26.397
ltoes -5.17593
290
root 15.1742 15.3983 3.71754 175.939 -34.3327 179.8
lowerback 4.49266 0.773732 -0.41794
upperback 2.94718 0.910065 -0.577368
thorax 0.509126 0.409006 -0.3938
lowerneck -6.78608 3.21701 7.61885
upperneck 5.6068 3.91729 -5.00094
head 3.35087 1.9303 -2.84107
rclavicle -1.44492e-014 1.2921e-014
rhumerus 20.158 -2.18061 -91.4722
rradius 53.5875
rwrist -64.3957
rhand -31.4929 -7.4084
rfingers 7.12502
rthumb -4.75906 -37.335
lclavicle -1.44492e-014 1.2921e-014
lhumerus 86.6926 -57.3074 8.56176
lradius 99.1024
lwrist 38.3876
lhand 20.2852 8.7224
lfingers 7.12502
lthumb 44.8006 32.3001
rfemur -1.79291 12.9209 22.2539
rtibia 23.572
rfoot -30.2469 -30.911
rtoes -15.0512
lfemur -2.73448 -18.7998 -22.1618
ltibia 24.8779
lfoot -22.132 26.5445
ltoes -5.37395
291
root 15.1754 15.401 3.71644 175.968 -34.2614 179.831
lowerback 4.2615 0.789877 -0.205738
upperback 3.14095 0.934004 -0.657329
thorax 0.842035 0.421473 -0.591141
lowerneck -7.02376 3.25762 7.6803
upperneck 5.53594 3.95169 -5.05235
head 3.37877 1.94394 -2.86697
rclavicle -8.46574e-014 8.15017e-015
rhumerus 20.2338 -0.164879 -90.6093
rradius 56.2513
rwrist -63.0424
rhand -32.464 -8.00544
rfingers 7.12502
rthumb -5.69676 -37.9089
lclavicle -8.46574e-014 8.15017e-015
lhumerus 87.012 -56.9988 8.11219
lradius 99.3929
lwrist 38.3075
lhand 19.3816 9.09731
lfingers 7.12502
lthumb 43.9585 32.9956
rfemur -1.86611 12.9672 22.2738
rtibia 23.5755
rfoot -30.1419 -30.9137
rtoes -14.9285
lfemur -2.74277 -18.8173 -22.1263
ltibia 24.8299
lfoot -22.0603 26.6888
ltoes -5.52425
292
root 15.1768 15.4021 3.71576 176.092 -34.154 179.738
lowerback 4.25886 0.767796 -0.221777
upperback 3.16557 0.90235 -0.717308
thorax 0.869267 0.405104 -0.642371
lowerneck -7.22542 3.33249 7.76026
upperneck 5.66982 4.03448 -5.08455
head 3.47479 1.98446 -2.88845
rclavicle -3.26255e-014 1.61016e-014
rhumerus 20.2022 2.42481 -89.5504
rradius 59.2248
rwrist -61.0891
rhand -31.8149 -7.25232
rfingers 7.12502
rthumb -5.07002 -37.1717
lclavicle -3.26255e-014 1.61016e-014
lhumerus 86.9967 -56.9441 7.84568
lradius 99.694
lwrist 38.4627
lhand 18.1212 9.41719
lfingers 7.12502
lthumb 42.781 33.7401
rfemur -1.97194 13.0211 22.1753
rtibia 23.564
rfoot -29.9323 -30.9447
rtoes -15.3012
lfemur -2.79394 -18.7631 -22.1754
ltibia 24.7973
lfoot -22.4015 26.5757
ltoes -4.27286
293
root 15.179 15.4028 3.71491 176.125 -33.978 179.717
lowerback 4.63032 0.681483 -0.29258
upperback 2.93607 0.787791 -0.717994
thorax 0.424369 0.349581 -0.605003
lowerneck -6.99036 3.46943 7.76989
upperneck 6.10025 4.25819 -5.28424
head 3.2334 2.0759 -2.64738
rclavicle 4.19808e-014 -5.36719e-015
rhumerus 20.0372 5.76329 -88.3403
rradius 62.282
rwrist -58.5909
rhand -30.9509 -6.52477
rfingers 7.12502
rthumb -4.23577 -36.4624
lclavicle 4.19808e-014 -5.36719e-015
lhumerus 86.3702 -57.2284 7.92322
lradius 100.175
lwrist 38.3327
lhand 16.6409 9.75027
lfingers 7.12502
lthumb 41.3939 34.5402
rfemur -2.01851 13.1234 22.1628
rtibia 23.5467
rfoot -29.7453 -30.926
rtoes -15.5923
lfemur -2.77861 -18.6272 -22.1642
ltibia 24.7633
lfoot -22.9722 26.3246
ltoes -2.20562
294
root 15.18 15.4047 3.71452 176.077 -33.7697 179.828
lowerback 4.89602 0.56293 -0.141832
upperback 2.79234 0.637137 -0.73147
thorax 0.129478 0.277678 -0.700225
lowerneck -6.70346 3.63011 7.78978
upperneck 5.79405 4.46805 -5.06429
head 3.44935 2.20725 -2.86537
rclavicle 8.82852e-014 4.17448e-015
rhumerus 20.4046 9.73359 -86.8216
rradius 65.3071
rwrist -55.9195
rhand -29.9399 -4.7105
rfingers 7.12502
rthumb -3.25938 -34.6653
lclavicle 8.82852e-014 4.17448e-015
lhumerus 85.5962 -57.3606 8.0405
lradius 100.782
lwrist 37.7085
lhand 14.9873 10.0323
lfingers 7.12502
lthumb 39.8397 35.3065
rfemur -2.07593 13.2644 22.267
rtibia 23.5764
rfoot -29.7783 -30.7708
rtoes -15.1599
lfemur -2.72224 -18.5396 -22.0516
ltibia 24.6775
lfoot -23.2389 26.319
ltoes -1.19271
